/* XPM */
static char *_64c15e4589f4361c32d16f0f8e32571l1WMjSymUmTDw1Y0[] = {
/* columns rows colors chars-per-pixel */
"100 100 91 1 ",
"  c #030302",
". c #0A0505",
"X c #070805",
"o c #0B0C04",
"O c #05040A",
"+ c #0B070C",
"@ c #060B0B",
"# c #0D0C0B",
"$ c #100C07",
"% c #110D0B",
"& c #0E1302",
"* c #07150A",
"= c #0E110C",
"- c #121405",
"; c #141A02",
": c #12120D",
"> c #181608",
", c #161A0B",
"< c #181B0C",
"1 c #050513",
"2 c #080514",
"3 c #0D0D13",
"4 c #05051B",
"5 c #090719",
"6 c #0E0D1A",
"7 c #110E12",
"8 c #1B0D16",
"9 c #110F1B",
"0 c #0E1112",
"q c #0E121B",
"w c #111111",
"e c #151013",
"r c #131611",
"t c #131412",
"y c #101114",
"u c #151314",
"i c #131516",
"p c #191413",
"a c #181616",
"s c #131811",
"d c #161910",
"f c #171B14",
"g c #1B1D13",
"h c #191B17",
"j c #1A1D15",
"k c #121719",
"l c #151418",
"z c #12111C",
"x c #15111D",
"c c #15161E",
"v c #19161A",
"b c #1D161C",
"n c #1C1A1D",
"m c #231E1B",
"M c #172004",
"N c #182203",
"B c #1D2112",
"V c #212413",
"C c #0C0721",
"Z c #0D0924",
"A c #140F22",
"S c #110B25",
"D c #120E24",
"F c #150729",
"G c #110A2C",
"H c #150F2C",
"J c #0D1028",
"K c #141222",
"L c #161621",
"P c #131025",
"I c #141325",
"U c #151724",
"Y c #181423",
"T c #1A1525",
"R c #1D1524",
"E c #171A20",
"W c #171825",
"Q c #181820",
"! c #1A1C21",
"~ c #191827",
"^ c #11112A",
"/ c #191329",
"( c #19122F",
") c #130B33",
"_ c #100835",
"` c #130E3B",
"' c #150C38",
"] c #1A1337",
"[ c #1F1832",
"{ c #171138",
"} c #211C22",
/* pixels */
"wwwwwwwwwwwwwwwwwwwwwwwwwwwwwww33=:dt=##33::::::::::t:=033+#:::wwwwwwwwwwwwwwwwwwwwwwwwwwwwwwwwwwwww",
"wwwwwwwwwwwwwwwwwwwwwwwwwwwwwww63&;-tz3 6U**********t,o xI7-:%%wwwwwwwwwwwwwwwwwwwwwwwwwwwwwwwwwwwww",
"wwwwwwwwwwwwwwwwwwwwwwwwwwwwwwwzi;;X5Ih&f!00000000006t--Y[RabF9:wwwwwwwwwwwwwwwwwwwwwwwwwwwwwwwwwwww",
"wwwwwwwwwwwwwwwwwwwwwwwwwwwwwww90-:Z_P-&o#A9e7779979`^<,o::o;99:wwwwwwwwwwwwwwwwwwwwwwwwwwwwwwwwwwww",
"wwwwwwwwwwwwwwwwwwwwwwwwwwwwwwwy0#3{]7o-yH(7o-u97777D3&,#ksooWL:wwwwwwwwwwwwwwwwwwwwwwwwwwwwwwwwwwww",
"wwwwwwwwwwwwwwwwwwwwwwwwwwwwwwwtt32zloou3zlooax6=,0=====0qEfX0iwwwwwwwwwwwwwwwwwwwwwwwwwwwwwwwwwwwww",
"wwwwwwwwwwwwwwwwwwwwwwwwwwwwwww:ty=&o-wy=&o-wwwyiB00=00033yi=0ww=tw3wwwwwwwwwwwwwwwwwwwwwwwwwwwwwwww",
"wwwwwwwwwwwwwwwwwwwwwwwwwwwwwww=#yj&&w=yj&&wwww#O:#DAw---:04z=o>9cq3wwwwwwwwwwwwww==wwwwwwwwwwwwwwww",
"wwwwwwwwwwwwww:ww::wwwwww:wwww=f01Q:www1Q:wwwww77t-GS::wwwwwwwwwwwww::wwwwww:wwww=f03wwwwwwwwwwwwwww",
"wwwwwwwwww0=-39w%DAw---:04z=o>9cq4OO3w04OO3wwwww7:-3#:wwwwwwww=:39w%DAw---:04z=o>9cq2#wwwwwwwwwwwwww",
"wwwwwwwwww0=NzD:oGS::wwwwwwwwwwwwwtVtwwwtVtwwww%O-Vf:wwwwwwww0=NzD:oGS::wwwwwwwwwwwwwttwwwwwwwwwwwww",
"wwwwwwwwwwyiVc6--3#:wwwwwwwwwwwwwwwwwwwwwwwwwwul#-d=:wwwwwwwwyiVc6--3#:wwwwwwwwwwwwwwwwwwwwwwwwwwwww",
"wwwwwwwwww#O:+O-Vf:wwwwwwwwwwwwwwwwwwwwwwwwwwwvat:wwwwwwwwwww#O:+O-Vf:wwwwwwwwwwwwwwwwwwwwwwwwwwwwww",
"wwwwwwwwww77nx#-d=:wwwwwwwwwwwwwwwwwww:ww33w::..:wwwwwwwwwwww77nx#-d=:wwwwwwwwwwwwwwwwwwwwwwwwwwwwww",
"wwwwwwwwwww7vat:wwwwwwwwwwwwwwwwww7y:wzy:ww3ym%#wwwwwwwwwwwwww7vat:wwwwwwwwwwwww::ww0yy:wwwwwwwwwwww",
"wwwwwwwwww:%..:wwwwwwwwwwwwwwwwww:Zz-7'9::w63%::wwwwwwwwwwwww:%..:wwwwwwwwwwd00=000339z:wwwwwwwwwwww",
"wwwwwwwww3am%#wwwwwwwwwwwwwwwwwwtBDy-#C#:wwz7#:wwwwwwwwwwwww3am%#wwwwwwwww3+:#DAw---:04w:wwwwwwwwwww",
"wwwwwwwwww7%::wwwwwwwwwwwwwwwww7wd2X,gw&www7wxwwwwwwww0=:wwww7%::wwwwwwwww77t-GS::wwwwwwwwwwwwwwwwww",
"www:www:ww3#:wwwwwwwwwww:ww:ww337i+o<g->wD9:-:wwwwwwww0=,w:ww3#:wwwwwwwwwww7:-3#:wwwwwwww=:w::wwwwww",
"0::7y:wzy:wxwwwwwwww0=-39w:yww67b}v::##:#C#::wwwwwwwwwyifwzy:wxwwwwwwwwwww#O-Vf:wwwwwwww0=M3zywwwwww",
"#&;Zz-7'9--:wwwwwwww0=Nz9::wwwz%++#ww3X,gw&#3wwwwwwwww##:7'9--:wwwwwwwwwwul#-d=:wwwwwwwwyiVzIT:wwwww",
"ygBDy-#C#::wwwwwwwwwyiBzwwwwww9gp.oii+o<g-;93wwwwwwwwwww:#C#::wwwwwwwwwwwvat:wwwwwwwwwww#O:++#wwwwww",
"3:d2X,gw&#3wwwwwwwww##wwwwwwwwyap::v}v::#o</ywwwwwwwwwww:gw&#3wwwwww33w::..:wwwwwwwwwwww77nx:-wwwwww",
"+7i+o<g-;93wwwwwwwwwwwwwwwwwwwt+#::#+#wywiv3wwwwwwwwwwwwwg-;93wwwyy:ww3ym%#wwwwwwwwwwwwww7vat:wwwwww",
"7b}v::#o</ywwwwwwwwwwwwwwwwwww:yewtp.oiywy7:www:ww::wwwww#o</yw:7)9::w63%::wwwwwwwwwwwww:%..:ywwwwww",
"%++#wywiv3wwwwwwwwwwwwwwwwwwwwwwwwep::iwwww0=-39w%DAw---:0iv3yy-#C#:wwz7#:wwwwwwwwwwwww3am%#wwwwwwww",
"gp.oiywy7:www:ww::wwwwww:wwwwwwwww##:wwwwwwwwwwwwwww33=:dty7:3X,gw&www7wxwwwwwwww0=:wwww7%::wy:wwwww",
"ap::iwwww0=-39w%DAw---:03wwwwwwwwwwwwwwwwwwwwwwwwwww63&;-tyww+o<g->wD9:-:wwwwwwww0=,w:ww3#:wwwwwwwww",
"+#:wwwwww0=NzD:oGS::wwwwwwwwwwwwwwwwwwwwwwwwwwwwwwwwzi;;X5Kinv::##:#C#::wwwwwwwwwyifwzy:wxwwwwywwwww",
"9uwwwwwwwyiVc6--3#:wwwwwwwwwwwwwwwwwwwwwwwwwwwwwwwww90-:ZGz%##ww3X,gw&#3wwwwwwwww##:7'9--:wwwy:wwwww",
"#wwwwwwww#O:+O-Vf:wwwwwwwwwwwwwwwwwwwwwwwwwwwwwwwwwwy0#3Kxwe##yi+o<g-;93wwwwwwwwwww:#C#::wwww=ewwwww",
"twwwwwwww77nx#-d=:wwwwwwwwwwwwwwwwwwwwwwwwwwwwwwwwwwwwy:wzy:wwyvn::#o</ywwwwwwwwwww:gw&#3wwww0wwwwww",
"bwwwwwwwww7vat:wwwwwwwww:wwwwwwwwwwwwwwwwwwwwwwwwwww:Zz-7'9::w63#:wwiv3wwwwwwwwwwwwwg-;93www7z:wwwww",
"S7www:wyy:%##wwwwwww0=-39wwwwwtw:wwwwwwwwwwwwwwwwwwtBDy-#C#:wwz7#:wwy7:www:ww::wwwww#o</wwww%-wwwwww",
":::Zx-7'9--:wwwwwwww0=,yywwww7%::wwwwwwwwwwwwwwwww7wd2X,gw&www7wxwwwww0=-39w%DAw---:0iv3wwwe7%wwwwww",
"3sBDy-#5#::wwwwwwwwwww:www:ww3#:wwwwwwwwwww:ww:ww337i+o<g->wD9:-:wwwwwwwwwwwwww33=:dty7:www:87wwwwww",
"60d2#>:w::wwwwwwwwww::7y:wzy:wxwwwwwwww0=-39w:yww67b}v::##:#C#::wwwwwwwwwwwwwww63&;-tyw0=:i;vxwwwwww",
"i7i##:twwwwwwwwwwww#&;Zz-7'9--:wwwwwwww0=Nz9::wwwz%++#ww3X,gw&#3wwwwwwwwwwwwwwwzi;;X5Kt00c@&zzwwwwww",
"3vn7#:wwwwwwwwwwwwwygBDy-#C#::wwwwwwwwwyiBzwwwwww9gp.oii+o<g-;93wwwwwwwwwwwwwww90-:Z_P-=tnfX3zwwwwww",
"%%%wxwwwwwwww0=-39w#:d2X,gw&#3wwwwwwwww##wwwwwwwwyap::a}v::#o</ywwwwwwwwwwwwwwwy0#3{]7o--$e>96wwwwww",
"Y9--:wwwwwwww0=Nz9:%7i+o<g-;93wwwwwwwwwwwwwwwwwwwt+#::#+#wywiv3wwwwwwwwwwwwwwwwtt31zloo:%.%<y3wwwwww",
"5#::wwwwwwwwwyiBzwwwwnv::#o</ywwwwwwwwwwwwwwwwwww:yewtp.oiywy7:www:ww::wwwwwwww:ty=&o:wwwwwwwwwwwwww",
"w&#3wwwwwwwww##wwwwwww#wywiv3wwwwwwwwwwwwwwwwwwwwwwwwep::iwwww0=-39w%D9wwwwwwww=#yj&=wwwwwwwwwwwwwww",
"-;93wwwwwwwwwwwwwwwwwwwi0wy7:www:ww::wwwwww:wwwwwwwww##:wwwwwwwwwwwwwwwww:wwww=f01l:wwwwwwwwwwwwwwww",
"o</ywwwwwwwwwwwwwwwwwww:ywwww=-39w%DAw---:03wwwwwwwwwwwwwwwwwwwwwwwwww::04z=o>9c033wwwwwwwwwwwwwwwww",
"iv3wwwwwwwwwwwwwwwwwwwwwwwwee=,z9:oSS::wwwwwwwwwwwwwwwwwwwwwwwwwwwwwwwwwwwwwwwwwwwwwwwwwwwwwwwwwwwww",
"y7:www:ww::wwwwww:wwwwwwwww##:www::7#:wwwwwwwwwwwwwwwwwwwww:wwwwwwwwwwwwwwwwwwwwwwwwwwwwwwwwwwwwwwww",
"ww0=-39w%DAw---:03wwwwwwwwwwwwwwwwwwwwwwwwwww73=::wyww##:f::wzy:::wwwwwwwwww:wwwwwwwwwwwwwwwwwwwwwww",
"ww0=NzD:oGS::wwwwwwwwwwwwwwwwwwwwwwwwwwwwwwwwzi;;X5Kinv::##:#C#::wwwwwwwwwyidwywwwwwwwwwwwwwwwwwwwww",
"wwyiVc6--3#:wwwwwwwwwwwwwwwwwwwwwwwwwwwwwwwww90-:ZGz%##ww3X,gw&#3wwwwwwwww##:7)y:wwwwwwwwwwwwwwwwwww",
"ww#O:+O-Vf:wwwwwwwwwwwwwwwwwwwwwwwwwwwwwwwwwwy0#3Kxwe##yi+o<g-;93wwwwwwwwwww:#C#:wwwwwwwwwwwwwwwwwww",
"ww77nx#-d=:wwwwwwwwwwwwwwwwwwwwwwwwwwwwwwwwwwwwy:wzy:wwyvn::oo</ywwwwwwwwwww:gw&#3wwwwwwwwwwwwwwwwww",
"www7bv::w:wwwwwww:wwwwwwwwwwwwwwwwwwwwwwwwwww:Zz-7'9::w63#:wwiv3wwwwwwwwwwwwwg-;93wwwwwwwwwwwwwwwwww",
"yy:%vae:wwwww0=-39wwwwwtw:wwwwwwwwwwwwwwwwwwtBDy-#C#:wwz7#:wwy7:www:ww::wwwww#o</ywwwwwwwwwwwwwwwwww",
"Hy:%##wwwwwww0=,yywwww7%::wwwwwwwwwwwwwwwww7wd2o,gw&www7wxwwwww0=-39w%DAw---:0iv3wwwwwwwwwwwwwwwwwww",
"'9--:wwwwwwww0=,www:ww3#:wwwwwwwwwww:ww:ww337i+o<g->wD9:-:wwwwwwwwwwwwww33=:dty7:wwwwwwwwwwwwwwwwwww",
"5#::wwwwwwwwwww:w:wzy:wxwwwwwwww0=-39w:yww67b}v::##-#C#::wwwwwwwwwwwwwww63&;-tyw0=:i>wwwwwwwwwwwwwww",
"w::wwwwwwwwww::7y:7)9--:wwwwwwww0=Nz9::wwwz%++#ww3X,gw&#3wwwwwwwwwwwwwwwzi;;o5Kt0=t0;uywwwwwwwwwwwww",
"wwwwwwwwwwww#&;Zz-7)7:>wwwwwwwwwyiBzwwwwww9gp.oii+o<g-;93wwwwwwwwwwwwwww9w-:3CKt00c@&zzwwwwwwwwwwwww",
"wwwwwwwwwwwwygBDy-#C#::wwwwwwwww##wwwwwwwwyap::v}v::#o</ywwwwwwwwwwwwwwwy0-:Z_P-=tnfX3zwwwwwwwwwwwww",
"wwwwww0=-39w#wd2X,gw&#3wwwwwwwwwwwwwwwwwwwt##::%##ww0wv9wwwwwwwwwwwwwwwwy0#3{]7o--$e>96wwwwwwwwwwwww",
"wwwwww0=Nz9:%7i2o<g-;93wwwwwwwwwwwwwwwwwwwt3#:w%+owywil3wwwwwwwwwwwwwwwwtt31xloo:%.%<y3wwwwwwwwwwwww",
"wwwwwwyiBzwwwwvi::#o</ywwwwwwwwwwwwwwwwwww:yewtp.oiywy7:www:ww::wwwwwwww:ty=&o:wwwwwwwwwwwwww=wwwwww",
"wwwwww##wwwwwwwwwwwwl3wwwwwwwwwwwwwwwwwwwwwwwwep::iwwww0=-39w%D9wwwwwwww=#yj&=wwwwwwwwwwwwwww=wwwwww",
"wwwwwwwwwwwwwwwwwwwwwwwww:ww::wwwwww:wwwwwwwww##:wwwwwwwwwwwwwwwww:wwww=f01l:wwwwwwwwwwwwwwww~:wwwww",
"wwwwwwwwwwwwwwwwwwwwww::39w%DAw---:03wwwwwwwwwwwwwwwwwwwwwwwwww::04z=o>9c033wwwwwwwwwwwwwwwww7wwwwww",
"wwwwwwww:ww::wwwwww:www:z9:oSS::wwwwwwwwwwwwwwwwwwwwwwwwwwwwwwwwwwwwwwwwwwwwwwwwwwwwwwwwwwwww=wwwwww",
"ww::w=-39w%DAw---:03wwwwww::7#:wwwwwwwwwwwwwwwwwwwww:wwwwwwwwwwwwwwwwwwwwwwwwwwwwwwwwwwwwwwwwwwwwwww",
"w%D90=NzD:oGS::wwwwwwwwwwwwwwwwwwwwwww73=::wwww##:f::wzy:::wwwwwwwwww:wwwwwwwwwwwwwwwwwwwwwwwZ:wwwww",
":oS9wiVc6--3#:wwwwwwwwwwwwwwwwwwwwwwwwzi;;X5Kinv::##:#C#::wwwwwwwwwyidwywwwwwwwwwwwwwwwwwwwwwz:wwwww",
"--3w#O:+O-Vf:wwwwwwwwwwwwwwwwwwwwwwwww90-:ZGz%##ww3X,gw&#3wwwwwwwww##:7)y:wwwwwwwwwwwwwwwwwww:wwwwww",
"-Vtw77nx#-d=:wwwwwwwwwwwwwwwwwwwwwwwwwy0#3Kxwe##yi+o<g-;93wwwwwwwwwww:#C#:wwwwwww:wwwwwwwwwww-wwwwww",
"-d:ww7bv::w:wwwwwww:wwwwwwwwwwwwwwwwwwwwy:wzy:wwyvn::#o</ywwwwwwwwwww:gw&#3wwwwt:>y3wwwwwwwww*wwwwww",
":wyy:%vatwwwwww0=-39wwwwwtw:wwwwwwwwww:5z-7)9::w63#:wwiv3wwwwwwwwwwwwwg:;93wwww#o</ywwwwwwwwwJ:wwwww",
"wwDy:%##wwwwwww0=,yywwww7%::wwwwwwwwwwwyw:=6#:ww93#dw:ywwwww:wwwww=:37:oxAw---=0iv3wwwwwwwwww6:wwwww",
"wwH9--:wwwwwwww0=,www:ww3#:wwwwwwwwwww:ww:ww337i3o<g:>wD9:-:wwwwwwwwwwwwww33=:dty7:www:wwwwww0wwwwww",
"ow6#::wwwwwwwwwww:w:wzy:wxwwwwwwww0=-39w:yww67b}v::##:#C#::wwwwwwwwwwwwwww63&;-tyw0=:i>wwwwwwtwwwwww",
";&w::wwwwwwwwww::7y:7)9--:wwwwwwww0=Nz9::wwwz%++#ww3X,gw&#3wwwwwwwwwwwwwwwzi;;o5Kt0=t0;uywwww:wwwwww",
":hlwwwwwwwwwww#&;Zz-7)7:>wwwwwwwwwyiBzwwwwww9gp.oii+o<g-;93wwwwwwwwwwwwwww9w-:3CKt00c@&zzwwww#wwwwww",
"23fywwwwwwwwwwygBDy-#C#::wwwwwwwww##wwwwwwwwyap::v}v::#o</ywwwwwwwwwwwwwwwy0-:Z_P-=tnfX3zwwwwwwwwwww",
"3X&iwwww0=-39w#:d2X,gw&#3wwwwwwwwwwwwwwwwwwwt##::%##ww0wv9wwwwwwwwwwwwwwwwy0#3{]7o--$e>96wwwwwwwwwww",
"g<@3wwww0=Nz9:%7i+o<g-;93wwwwwwwwwwwwwwwwwwwt3#:w%+owywil3wwwwwwwwwwwwwwwwtt31zloo:%.%<y3wwwwwwwwwww",
"ww3wwwwwyiBzwwwwnv::#o</ywwwwwwwwwwwwwwwwwww:yewtp.oiywy7:www:ww::wwwwwwww:ty=&o:wwwwwwwwwwwwww=wwww",
"wwwwwwww##wwwwwww#wywiv3wwwwwwwwwwwwwwwwwwwwwwwwep::iwwww0=-39w%D9wwwwwwww=#yj&=wwwwwwwwwwwwwww=wwww",
"wwwwwwwwwwwwwwwwwwi0wy7:www:ww::wwwwww:wwwwwwwww##:wwwwwwwwwwwwwwwww:wwww=f01l:wwwwwwwwwwwwwwwwLwwww",
"wwwwwwwwwwwwwwwwww:ywwww=-39w%DAw---:03wwwwwwwwwwwwwwwwwwwwwwwwww::04z=o>9c033wwwwwwwwwwwwwwwwwywwww",
"wwwwwwwwwwwwwwwwwwwwwwee=,z9:oSS::wwwwwwwwwwwwwwwwwwwwwwwwwwwwwwwwwwwwwwwwwwwwwwwwwwwwwwwwwwwww:wwww",
"wwwwwwwwwwww:wwwwwwwww##:www::7#:wwwwwwwwwwwwwwwwwwwww:wwwwwwwwwwwwwwwwwwwwwwwwwwwwwwwwwwwwwwwwwwwww",
"wwwwwwwww::03wwwwwwwwwwwwwwwwwwwwwwwwwww73=::wyww##:f::wzy:::wwwwwwwwww:wwwwwwwwwwwwwwwwwwwwwww9wwww",
"wwwwwwwwww::wwwwwwwwwwwwwwwwwwwwwwwwwwwwzi;;X5Kinv::##:#C#::wwwwwwwwwyidwywwwwwwwwwwwwwwwwwwwwwywwww",
"wwwwwwwwwwyx:wwwwwwwwwwwwwwwwwwwwwwwwwww90-:ZGz%##ww3X,gw&#3wwwwwwwww##:7)y:wwwwwwwwwwwwwwwwwwwwwwww",
"wwwwwwwwww:$3Kw:wwwwwwwwwwwwwwwwwwwwwwwwy0#3Kxwe##yi+o<g-;93wwwwwwwwwww:#C#:wwwwwwwwwwwwwwwwwwwwwwww",
"wwwwwwwwww::6ct=3wwwwwwwwwwwwwwwwwwwwwwwwww:wzy:wwyvn::#o</ywwwwwwwwwww:gw&#3wwwwwwwwwwwwwwwwwwwwwww",
"wwwwwwwwwwwww:wwwwwwwwwwwwwwwwwwwwwwwwww:Zz-7'9::w63#:wwiv3wwwwwwwwwwwwwg-;93wwwwwwwwwwwwwwwwwwwwwww",
"wwwwwwwwwwwwwwwwwwww:wwwwwwwwwwwwwwwwwwtBDy-#C#:wwz7#:wwy7:www:ww::wwwww#o</ywwwwwwwwwwwwwwwwwwwwwww",
"wwwwwwwwwwwwwwwwwwwwwwwwwwwwwwwwwwwwww7wd2X,gw&www7wxwwwww0=-39w%DAw---:0iv3wwwwwwwwwwwwwwwwwwwwwwww",
"wwwwwwwwwwwwwwwwwwwwwwwwwwwwwww:ww:ww737a+o<g->wD9:-:wwwwwwwwwwwwww33=:dty7:wwwwwwwwwwwwwwwwwwwwwwww",
"wwwwwwwwwwwwwwwwwwwwwwwwwwww=:39w:yww67b}v::##:#C#::wwwwwwwwwwwwwww63&;-tyw0=:i;wwwwwwwwwwwwwwwwwwww",
"wwwwwwwwwwwwwwwwwwwwwwwwwwwww:w9u::wwz%++#ww3X,gw&#3wwwwwwwwwwwwwwwzi;;X5Kt00c@&wwwwwwwwwwwwwwwwwwww",
"wwwwwwwwwwwwwwwwwwwwwwwwwwwwwwwx7%e7ulaa.oii+o<g-;93wwwwwwwwwwwwyww90&:S)z::wiw=wwwwwwwwwwwwwwwwwwww"
};
